<?xml version="1.0" encoding="utf-8"?>
<!-- Generator: Adobe Illustrator 17.1.0, SVG Export Plug-In . SVG Version: 6.00 Build 0)  -->
<!DOCTYPE svg PUBLIC "-//W3C//DTD SVG 1.1//EN" "http://www.w3.org/Graphics/SVG/1.1/DTD/svg11.dtd">
<svg version="1.1" id="Layer_1" xmlns="http://www.w3.org/2000/svg" xmlns:xlink="http://www.w3.org/1999/xlink" x="0px" y="0px"
	 viewBox="0 0 16 16" enable-background="new 0 0 16 16" xml:space="preserve">
<path fill="#014D78" d="M0.7,6.6h14.5v7.5c0,0.4-0.3,0.8-0.8,0.8h-13c-0.4,0-0.8-0.3-0.8-0.8V6.6z"/>
<g>
	<path fill="#6A1B32" d="M0.7,7.2h14.5V1.9c0-0.4-0.3-0.8-0.8-0.8h-13c-0.4,0-0.8,0.3-0.8,0.8V7.2z"/>
	<rect x="10.6" y="2.5" fill="#FFFFFF" width="0.6" height="0.2"/>
	<rect x="10.6" y="5.6" fill="#FFFFFF" width="0.6" height="0.2"/>
	<rect x="10.6" y="4.9" fill="#FFFFFF" width="0.6" height="0.2"/>
	<rect x="10.6" y="3.7" fill="#FFFFFF" width="0.6" height="0.2"/>
	<rect x="10.6" y="4.5" fill="#FFFFFF" width="0.6" height="0.2"/>
	<rect x="10.6" y="3.3" fill="#FFFFFF" width="0.6" height="0.2"/>
	<rect x="10.6" y="2.9" fill="#FFFFFF" width="0.6" height="0.2"/>
	<rect x="10.6" y="5.2" fill="#FFFFFF" width="0.6" height="0.2"/>
	<rect x="10.6" y="4.1" fill="#FFFFFF" width="0.6" height="0.2"/>
	<path fill="#FFFFFF" d="M8.1,2.5H7.5v0.2h0.8L8.1,2.5z M8.4,2.9H7.5v0.2h1.1L8.4,2.9z"/>
	<path fill="#FFFFFF" d="M6.2,5.6C6.1,5.6,6.1,5.6,6.2,5.6c-0.1,0-0.1,0-0.1,0H4.7v0.2h1.9v0c0.2,0,0.4-0.1,0.5-0.2H6.2z"/>
	<rect x="4.7" y="4.5" fill="#FFFFFF" width="0.6" height="0.2"/>
	<rect x="4.7" y="3.3" fill="#FFFFFF" width="0.6" height="0.2"/>
	<rect x="4.7" y="3.7" fill="#FFFFFF" width="0.6" height="0.2"/>
	<rect x="4.7" y="2.9" fill="#FFFFFF" width="0.6" height="0.2"/>
	<rect x="4.7" y="4.9" fill="#FFFFFF" width="0.6" height="0.2"/>
	<rect x="4.7" y="5.2" fill="#FFFFFF" width="0.6" height="0.2"/>
	<path fill="#FFFFFF" d="M6.1,5.6C6.1,5.6,6.1,5.6,6.1,5.6L6.1,5.6C6,5.6,6.1,5.6,6.1,5.6"/>
	<path fill="#FFFFFF" d="M7.2,4.7c0-0.1-0.1-0.2-0.1-0.2H6.4c0.1,0.1,0.1,0.1,0.2,0.2H7.2z"/>
	<path fill="#FFFFFF" d="M6.7,4.9c0,0,0,0.1,0,0.1c0,0,0,0,0,0.1h0.6c0,0,0,0,0,0c0-0.1,0-0.1,0-0.2H6.7z"/>
	<path fill="#FFFFFF" d="M6.5,5.5h0.7c0-0.1,0.1-0.1,0.1-0.2H6.7C6.6,5.3,6.6,5.4,6.5,5.5"/>
	<path fill="#FFFFFF" d="M6.5,3.3c0,0.1,0,0.1,0,0.1h0.6c0-0.1,0-0.1,0-0.2c0,0,0,0,0-0.1L6.5,3.3C6.5,3.3,6.5,3.3,6.5,3.3"/>
	<path fill="#FFFFFF" d="M6.5,3.1H7C7,3,7,2.9,7,2.9H6.3C6.4,2.9,6.4,3,6.5,3.1"/>
	<path fill="#FFFFFF" d="M6.2,3.9h0.6C6.9,3.8,7,3.7,7,3.7H6.4C6.4,3.8,6.3,3.8,6.2,3.9"/>
	<path fill="#FFFFFF" d="M5.7,2.7h0.4h0.7C6.7,2.6,6.5,2.5,6.3,2.5v0H4.7v0.2H5.7L5.7,2.7z"/>
	<path fill="#FFFFFF" d="M6.5,4.2C6.4,4.2,6.4,4.2,6.5,4.2c0,0,0.1-0.1,0.2-0.1h-2v0.2h2.2C6.7,4.2,6.6,4.2,6.5,4.2"/>
	<polyline fill="#FFFFFF" points="5.7,2.7 5.7,2.7 5.7,2.7 5.7,2.7 	"/>
	<rect x="7.5" y="4.9" fill="#FFFFFF" width="0.3" height="0.2"/>
	<rect x="7.5" y="4.1" fill="#FFFFFF" width="0.3" height="0.2"/>
	<rect x="7.5" y="5.6" fill="#FFFFFF" width="0.3" height="0.2"/>
	<rect x="7.5" y="5.2" fill="#FFFFFF" width="0.3" height="0.2"/>
	<rect x="7.5" y="3.7" fill="#FFFFFF" width="0.3" height="0.2"/>
	<rect x="7.5" y="4.5" fill="#FFFFFF" width="0.3" height="0.2"/>
	<rect x="10" y="4.1" fill="#FFFFFF" width="0.3" height="0.2"/>
	<rect x="10" y="3.7" fill="#FFFFFF" width="0.3" height="0.2"/>
	<rect x="10" y="3.3" fill="#FFFFFF" width="0.3" height="0.2"/>
	<rect x="10" y="2.5" fill="#FFFFFF" width="0.3" height="0.2"/>
	<rect x="10" y="2.9" fill="#FFFFFF" width="0.3" height="0.2"/>
	<rect x="10" y="4.5" fill="#FFFFFF" width="0.3" height="0.2"/>
	<polygon fill="#FFFFFF" points="9.2,4.1 8.4,4.1 8.5,4.3 9.4,4.3 	"/>
	<polygon fill="#FFFFFF" points="8.7,4.5 8.8,4.7 9.7,4.7 9.5,4.5 	"/>
	<polygon fill="#FFFFFF" points="9,3.7 8.1,3.7 8.3,3.9 9.1,3.9 	"/>
	<polygon fill="#FFFFFF" points="9.7,5.6 9.5,5.6 9.7,5.9 9.7,5.9 10.3,5.9 10.3,5.6 10.1,5.6 	"/>
	<polygon fill="#FFFFFF" points="9.7,5.2 9.2,5.2 9.4,5.5 9.7,5.5 10.2,5.5 10.3,5.5 10.3,5.2 10.1,5.2 	"/>
	<polygon fill="#FFFFFF" points="7.8,3.7 7.8,3.7 7.8,3.7 	"/>
	<polygon fill="#FFFFFF" points="10,4.7 10,4.7 10,4.7 	"/>
	<path fill="#FFFFFF" d="M11.6,2.7L11.6,2.7C11.7,2.7,11.7,2.7,11.6,2.7c0.1,0,0.1,0,0.1,0c0,0,0,0,0,0c0,0,0,0,0,0
		C11.7,2.6,11.7,2.6,11.6,2.7L11.6,2.7L11.6,2.7z M11.6,2.8V2.6h0.1c0,0,0,0,0,0c0,0,0,0,0,0c0,0,0,0,0,0c0,0,0,0,0,0c0,0,0,0,0,0
		c0,0,0,0,0,0c0,0,0,0,0,0l0,0.1h0l0,0c0,0,0,0,0,0C11.7,2.7,11.7,2.7,11.6,2.8C11.6,2.7,11.6,2.7,11.6,2.8
		C11.6,2.7,11.6,2.7,11.6,2.8L11.6,2.8L11.6,2.8L11.6,2.8z"/>
	<path fill="#FFFFFF" d="M11.4,2.7c0-0.1,0.1-0.2,0.2-0.2c0.1,0,0.2,0.1,0.2,0.2c0,0.1-0.1,0.2-0.2,0.2C11.5,2.9,11.4,2.8,11.4,2.7
		 M11.4,2.7c0,0.1,0.1,0.2,0.2,0.2c0.1,0,0.2-0.1,0.2-0.2c0-0.1-0.1-0.2-0.2-0.2C11.5,2.5,11.4,2.6,11.4,2.7"/>
	<polygon fill="#FFFFFF" points="8,3.5 8.1,3.5 8.8,3.5 8.7,3.3 8.1,3.3 7.8,3.3 7.8,3.3 8,3.5 	"/>
	<rect x="7.5" y="3.3" fill="#FFFFFF" width="0.3" height="0.2"/>
	<polygon fill="#FFFFFF" points="8.9,4.9 9.1,5.1 10,5.1 9.8,4.9 	"/>
	<rect x="10" y="4.9" fill="#FFFFFF" width="0.3" height="0.2"/>
</g>
<text transform="matrix(1 0 0 1 1.8941 11.7657)" fill="#FFFFFF" font-family="'HelveticaNeue-CondensedBold'" font-size="4.5968">NEXOS</text>
<text transform="matrix(1 0 0 1 6.563 14.4141)" fill="#FFFFFF" font-family="'HelveticaNeue-CondensedBold'" font-size="1.8328">APP</text>
<rect x="2.1" y="12.4" fill="#FFFFFF" width="11.9" height="0.2"/>
<rect x="0.7" y="7.2" fill="#FFFFFF" width="14.5" height="0.4"/>
</svg>
